HIERARCHY
ROOT hip
{
  OFFSET 0 0 0
  CHANNELS 6 Xposition Yposition Zposition Zrotation Yrotation Xrotation
  JOINT abdomen
  {
    OFFSET 0 20.6881 -0.73152
    CHANNELS 3 Zrotation Xrotation Yrotation
    JOINT chest
    {
      OFFSET 0 11.7043 -0.48768
      CHANNELS 3 Zrotation Xrotation Yrotation
      JOINT neck
      {
        OFFSET 0 22.1894 -2.19456
        CHANNELS 3 Zrotation Xrotation Yrotation
        JOINT head
        {
          OFFSET -0.24384 7.07133 1.2192
          CHANNELS 3 Zrotation Xrotation Yrotation
          JOINT leftEye
          {
            OFFSET 4.14528 8.04674 8.04672
            CHANNELS 3 Zrotation Xrotation Yrotation
            End Site
            {
              OFFSET 1 0 0
            }
          }
          JOINT rightEye
          {
            OFFSET -3.6576 8.04674 8.04672
            CHANNELS 3 Zrotation Xrotation Yrotation
            End Site
            {
              OFFSET 1 0 0
            }
          }
        }
      }
      JOINT rCollar
      {
        OFFSET -2.68224 19.2634 -4.8768
        CHANNELS 3 Zrotation Xrotation Yrotation
        JOINT rShldr
        {
          OFFSET -8.77824 -1.95073 1.46304
          CHANNELS 3 Zrotation Xrotation Yrotation
          JOINT rForeArm
          {
            OFFSET -28.1742 -1.7115 0.48768
            CHANNELS 3 Zrotation Xrotation Yrotation
            JOINT rHand
            {
              OFFSET -22.5879 0.773209 7.07136
              CHANNELS 3 Zrotation Xrotation Yrotation
              JOINT rThumb1
              {
                OFFSET -1.2192 -0.487915 3.41376
                CHANNELS 3 Zrotation Xrotation Yrotation
                JOINT rThumb2
                {
                  OFFSET -3.37035 -0.52449 3.41376
                  CHANNELS 3 Zrotation Xrotation Yrotation
                  End Site
                  {
                    OFFSET -1.78271 -1.18214 1.43049
                  }
                }
              }
              JOINT rIndex1
              {
                OFFSET -7.75947 0.938293 5.60832
                CHANNELS 3 Zrotation Xrotation Yrotation
                JOINT rIndex2
                {
                  OFFSET -2.54057 -0.884171 1.56538
                  CHANNELS 3 Zrotation Xrotation Yrotation
                  End Site
                  {
                    OFFSET -1.62519 -0.234802 1.16502
                  }
                }
              }
              JOINT rMid1
              {
                OFFSET -8.24714 1.18213 3.41376
                CHANNELS 3 Zrotation Xrotation Yrotation
                JOINT rMid2
                {
                  OFFSET -3.10165 -0.590103 1.0647
                  CHANNELS 3 Zrotation Xrotation Yrotation
                  End Site
                  {
                    OFFSET -2.48547 -0.328903 0.83742
                  }
                }
              }
              JOINT rRing1
              {
                OFFSET -8.82822 0.546677 1.51678
                CHANNELS 3 Zrotation Xrotation Yrotation
                JOINT rRing2
                {
                  OFFSET -2.60934 -0.819778 -0.0198488
                  CHANNELS 3 Zrotation Xrotation Yrotation
                  End Site
                  {
                    OFFSET -2.33842 -0.294052 0.168128
                  }
                }
              }
              JOINT rPinky1
              {
                OFFSET -8.27202 -0.0477905 -0.4584
                CHANNELS 3 Zrotation Xrotation Yrotation
                JOINT rPinky2
                {
                  OFFSET -1.82734 -0.647385 -0.700984
                  CHANNELS 3 Zrotation Xrotation Yrotation
                  End Site
                  {
                    OFFSET -1.69225 -0.51767 -0.607171
                  }
                }
              }
            }
          }
        }
      }
      JOINT lCollar
      {
        OFFSET 2.68224 19.2634 -4.8768
        CHANNELS 3 Zrotation Xrotation Yrotation
        JOINT lShldr
        {
          OFFSET 8.77824 -1.95073 1.46304
          CHANNELS 3 Zrotation Xrotation Yrotation
          JOINT lForeArm
          {
            OFFSET 28.1742 -1.7115 0.48768
            CHANNELS 3 Zrotation Xrotation Yrotation
            JOINT lHand
            {
              OFFSET 22.5879 0.773209 7.07136
              CHANNELS 3 Zrotation Xrotation Yrotation
              JOINT lThumb1
              {
                OFFSET 1.2192 -0.487915 3.41376
                CHANNELS 3 Zrotation Xrotation Yrotation
                JOINT lThumb2
                {
                  OFFSET 3.37035 -0.52449 3.41376
                  CHANNELS 3 Zrotation Xrotation Yrotation
                  End Site
                  {
                    OFFSET 1.78271 -1.18214 1.43049
                  }
                }
              }
              JOINT lIndex1
              {
                OFFSET 7.75947 0.938293 5.60832
                CHANNELS 3 Zrotation Xrotation Yrotation
                JOINT lIndex2
                {
                  OFFSET 2.54057 -0.884171 1.56538
                  CHANNELS 3 Zrotation Xrotation Yrotation
                  End Site
                  {
                    OFFSET 1.62519 -0.234802 1.16502
                  }
                }
              }
              JOINT lMid1
              {
                OFFSET 8.24714 1.18213 3.41376
                CHANNELS 3 Zrotation Xrotation Yrotation
                JOINT lMid2
                {
                  OFFSET 3.10165 -0.590103 1.0647
                  CHANNELS 3 Zrotation Xrotation Yrotation
                  End Site
                  {
                    OFFSET 2.48547 -0.328903 0.83742
                  }
                }
              }
              JOINT lRing1
              {
                OFFSET 8.82822 0.546677 1.51678
                CHANNELS 3 Zrotation Xrotation Yrotation
                JOINT lRing2
                {
                  OFFSET 2.60934 -0.819778 -0.0198488
                  CHANNELS 3 Zrotation Xrotation Yrotation
                  End Site
                  {
                    OFFSET 2.33842 -0.294052 0.168128
                  }
                }
              }
              JOINT lPinky1
              {
                OFFSET 8.27202 -0.0477905 -0.4584
                CHANNELS 3 Zrotation Xrotation Yrotation
                JOINT lPinky2
                {
                  OFFSET 1.82734 -0.647385 -0.700984
                  CHANNELS 3 Zrotation Xrotation Yrotation
                  End Site
                  {
                    OFFSET 1.69225 -0.51767 -0.607171
                  }
                }
              }
            }
          }
        }
      }
    }
  }
  JOINT rButtock
  {
    OFFSET -8.77824 4.35084 1.2192
    CHANNELS 3 Zrotation Xrotation Yrotation
    JOINT rThigh
    {
      OFFSET 0 -1.70687 -2.19456
      CHANNELS 3 Zrotation Xrotation Yrotation
      JOINT rShin
      {
        OFFSET 0 -36.8199 0.73152
        CHANNELS 3 Zrotation Xrotation Yrotation
        JOINT rFoot
        {
          OFFSET 0.73152 -45.1104 -5.12064
          CHANNELS 3 Zrotation Xrotation Yrotation
          End Site
          {
            OFFSET -1.1221 -3.69964 12.103
          }
        }
      }
    }
  }
  JOINT lButtock
  {
    OFFSET 8.77824 4.35084 1.2192
    CHANNELS 3 Zrotation Xrotation Yrotation
    JOINT lThigh
    {
      OFFSET 0 -1.70687 -2.19456
      CHANNELS 3 Zrotation Xrotation Yrotation
      JOINT lShin
      {
        OFFSET 0 -36.8199 0.73152
        CHANNELS 3 Zrotation Xrotation Yrotation
        JOINT lFoot
        {
          OFFSET -0.73152 -45.1104 -5.12064
          CHANNELS 3 Zrotation Xrotation Yrotation
          End Site
          {
            OFFSET 1.1221 -3.69964 12.103
          }
        }
      }
    }
  }
}
MOTION
Frames:	4
Frame Time:	0.03333
0.02604999952018261 48.72949981689453 0.04639999940991402 -20.4305000603199 -31.091000139713287 16.202799528837204 14.777300655841827 7.377889975905418 3.085710145533085 2.750829979777336 -7.192529886960983 0.9935680031776428 0.5642359843477607 12.93489933013916 7.4018702656030655 5.273660123348236 -23.349798917770386 15.683499723672867 0.0 0.0 0.0 0.0 0.0 0.0 3.197442310920451e-13 0.0 0.0 106.42000079154968 47.07849740982056 -56.946998834609985 -27.208001017570496 -43.43190014362335 90.32670378684998 -4.168009981513023 -48.678799867630005 -9.198480248451233 2.0754598040184646e-09 -3.1897684493742418e-09 2.391686848568497e-10 3.5705838286048674e-09 -5.366587174648885e-09 4.872902081842767e-10 2.0754598040184646e-09 -3.1897684493742418e-09 2.391686848568497e-10 7.7309102565050125 5.474880114197731 0.41731400415301323 2.0754598040184646e-09 -3.1897684493742418e-09 2.391686848568497e-10 2.905540131032467 0.9651830233633518 0.102901995414868 2.0754598040184646e-09 -3.1897684493742418e-09 2.391686848568497e-10 10.27859978377819 0.7318009994924068 0.025912300043273717 2.0754598040184646e-09 -3.1897684493742418e-09 2.391686848568497e-10 2.221670038998127 -0.733487019315362 -0.2089200052432716 3.197442310920451e-13 0.0 0.0 -43.85499984025955 13.779300302267075 -38.93310070037842 12.283499389886856 -5.648539736866951 -22.159500271081924 2.5365199707448483 40.44049948453903 -6.879449710249901 2.46874520826168e-09 2.916067387559451e-09 3.3291769341303734e-09 4.361631056326587e-09 4.491766958381049e-09 5.65819391340483e-09 2.46874520826168e-09 2.916067387559451e-09 3.3291769341303734e-09 -7.7309102565050125 5.474880114197731 -0.41731400415301323 2.46874520826168e-09 2.916067387559451e-09 3.3291769341303734e-09 -2.905540131032467 0.9651830233633518 -0.102901995414868 2.46874520826168e-09 2.916067387559451e-09 3.3291769341303734e-09 -10.27859978377819 0.7318009994924068 -0.025912300043273717 2.46874520826168e-09 2.916067387559451e-09 3.3291769341303734e-09 -2.221670038998127 -0.733487019315362 0.2089200052432716 0.0 0.0 0.0 -14.28670048713684 12.31829971075058 -3.5044100135564804 0.11340700322762132 28.594601154327393 2.4716500751674175 -6.115779876708984 -16.984300017356873 -27.52059906721115 0.0 0.0 0.0 95.50809860229492 -48.530699014663696 81.45270109176636 12.175500243902206 84.80539798736572 -11.531399935483932 -3.2835301011800766 -3.6431801319122314 -16.60280004143715
0.05006999894976616 48.67689895629883 0.09559999778866768 -20.340600460767746 -31.161799728870392 16.16270050406456 14.699000269174576 7.348399758338928 3.0741598829627037 2.769770063459873 -7.170510292053223 0.9886619914323092 0.5316489888355136 12.995600402355194 7.401689887046814 5.246050134301186 -23.433001041412354 15.682200193405151 0.0 0.0 0.0 0.0 0.0 0.0 -3.197442310920451e-13 0.0 1.2789769243681803e-12 106.49700164794922 47.089000940322876 -57.000702023506165 -27.20759868621826 -43.43269944190979 90.32939672470093 -4.191179908812046 -48.77299904823303 -9.229310229420662 -3.915587853953184e-09 7.090648068697192e-09 2.48121523327427e-10 -6.772822302991699e-09 1.2065868304489413e-08 3.0951241569709964e-10 -3.915587853953184e-09 7.090648068697192e-09 2.48121523327427e-10 7.7309102565050125 5.474880114197731 0.41731400415301323 -3.915587853953184e-09 7.090648068697192e-09 2.48121523327427e-10 2.905540131032467 0.9651830233633518 0.102901995414868 -3.915587853953184e-09 7.090648068697192e-09 2.48121523327427e-10 10.27859978377819 0.7318009994924068 0.025912300043273717 -3.915587853953184e-09 7.090648068697192e-09 2.48121523327427e-10 2.221670038998127 -0.733487019315362 -0.2089200052432716 -3.197442310920451e-13 0.0 1.2789769243681803e-12 -43.89670014381409 13.714299649000168 -38.896198868751526 12.269699424505234 -5.639359876513481 -22.133000046014786 2.5714399851858616 40.65960109233856 -6.933179721236229 -3.284412741777487e-09 -1.251095227416954e-08 -7.452598538293387e-09 -5.896403365568403e-09 -2.0583854620781494e-08 -1.2739889143631444e-08 -3.284412741777487e-09 -1.251095227416954e-08 -7.452598538293387e-09 -7.7309102565050125 5.474880114197731 -0.41731400415301323 -3.284412741777487e-09 -1.251095227416954e-08 -7.452598538293387e-09 -2.905540131032467 0.9651830233633518 -0.102901995414868 -3.284412741777487e-09 -1.251095227416954e-08 -7.452598538293387e-09 -10.27859978377819 0.7318009994924068 -0.025912300043273717 -3.284412741777487e-09 -1.251095227416954e-08 -7.452598538293387e-09 -2.221670038998127 -0.733487019315362 0.2089200052432716 0.0 0.0 0.0 -14.462900161743164 12.231099754571915 -3.4871798381209373 0.11314100353047252 28.740199506282806 2.4810699932277203 -6.152949929237366 -17.058599889278412 -27.535799145698547 0.0 0.0 0.0 95.44519543647766 -48.478299379348755 81.46349966526031 12.443899512290955 84.90060031414032 -11.786799877882004 -3.364280015230179 -3.7951500713825226 -16.734700351953506
0.07008999958634377 48.628299713134766 0.14399999752640724 -20.26600018143654 -31.211098730564117 16.123199611902237 14.6765998005867 7.3242297023534775 3.0333899706602097 2.7749100141227245 -7.15624026954174 0.9758220054209232 0.49527701921761036 13.055700659751892 7.408300191164017 5.220100097358227 -23.495198786258698 15.693399757146835 0.0 0.0 0.0 0.0 0.0 0.0 -3.197442310920451e-13 0.0 1.2789769243681803e-12 106.53799653053284 47.10970222949982 -57.02499747276306 -27.20990002155304 -43.426101207733154 90.31640410423279 -4.203839935362339 -48.82429897785187 -9.2461296916008 -4.094324879133637e-09 7.694325176998973e-09 4.156675004196586e-10 -7.089369091772824e-09 1.3114629382471321e-08 5.947242698312039e-10 -4.094324879133637e-09 7.694325176998973e-09 4.156675004196586e-10 7.7309102565050125 5.474880114197731 0.41731400415301323 -4.094324879133637e-09 7.694325176998973e-09 4.156675004196586e-10 2.905540131032467 0.9651830233633518 0.102901995414868 -4.094324879133637e-09 7.694325176998973e-09 4.156675004196586e-10 10.27859978377819 0.7318009994924068 0.025912300043273717 -4.094324879133637e-09 7.694325176998973e-09 4.156675004196586e-10 2.221670038998127 -0.733487019315362 -0.2089200052432716 -3.197442310920451e-13 0.0 1.2789769243681803e-12 -43.91239911317825 13.672300279140472 -38.85380119085312 12.254799753427505 -5.628960281610489 -22.104199826717377 2.5886299274861813 40.76620012521744 -6.959480121731758 -3.829896400020516e-09 -1.2224461443111068e-08 -7.861871154091205e-09 -6.849241174222698e-09 -2.0008315004815813e-08 -1.3429257705865894e-08 -3.829896400020516e-09 -1.2224461443111068e-08 -7.861871154091205e-09 -7.7309102565050125 5.474880114197731 -0.41731400415301323 -3.829896400020516e-09 -1.2224461443111068e-08 -7.861871154091205e-09 -2.905540131032467 0.9651830233633518 -0.102901995414868 -3.829896400020516e-09 -1.2224461443111068e-08 -7.861871154091205e-09 -10.27859978377819 0.7318009994924068 -0.025912300043273717 -3.829896400020516e-09 -1.2224461443111068e-08 -7.861871154091205e-09 -2.221670038998127 -0.733487019315362 0.2089200052432716 0.0 0.0 0.0 -14.586300551891327 12.202200293540955 -3.4865498542785645 0.11326199630275369 28.815298676490784 2.487700078636408 -6.181209683418274 -17.11909979581833 -27.547700107097626 0.0 0.0 0.0 95.42320132255554 -48.448301553726196 81.48819744586945 12.709499895572662 84.9916023015976 -12.040400058031082 -3.4359700977802277 -3.9241301268339157 -16.866800487041473
0.08558999933302402 48.58449935913086 0.19059999659657478 -20.223200172185898 -31.20079904794693 16.101700365543365 14.710300415754318 7.305389866232872 2.9634101316332817 2.766269948333502 -7.149709761142731 0.9550479613244534 0.45510000083595514 13.115200102329254 7.421709895133972 5.19583985209465 -23.536199033260345 15.717099756002426 0.0 0.0 0.0 0.0 0.0 0.0 0.0 0.0 0.0 106.5429961681366 47.14060127735138 -57.0199978351593 -27.2148996591568 -43.4118989109993 90.2875006198883 -4.2058901488780975 -48.832597732543945 -9.248850122094154 1.539248728477105e-09 -1.3812950783176348e-09 7.418066161335446e-10 2.6215829507236776e-09 -2.2177459868544247e-09 1.3429257705865894e-09 1.539248728477105e-09 -1.3812950783176348e-09 7.418066161335446e-10 7.7309102565050125 5.474880114197731 0.41731400415301323 1.538928984246013e-09 -1.3812950783176348e-09 7.418066161335446e-10 2.905540131032467 0.9651830233633518 0.102901995414868 1.539248728477105e-09 -1.3812950783176348e-09 7.418066161335446e-10 10.27859978377819 0.7318009994924068 0.025912300043273717 1.538928984246013e-09 -1.3812950783176348e-09 7.418066161335446e-10 2.221670038998127 -0.733487019315362 -0.2089200052432716 0.0 0.0 0.0 -43.90219867229462 13.653499335050583 -38.8059988617897 12.238800376653671 -5.617339946329594 -22.073000371456146 2.5876700319349766 40.760299265384674 -6.958010271191597 8.319744893015013e-10 3.770423973037396e-09 2.100080109812552e-09 1.503757118825888e-09 6.218385806278093e-09 3.5913672036258504e-09 8.319744893015013e-10 3.770423973037396e-09 2.100080109812552e-09 -7.7309102565050125 5.474880114197731 -0.41731400415301323 8.319744893015013e-10 3.770423973037396e-09 2.100080109812552e-09 -2.905540131032467 0.9651830233633518 -0.102901995414868 8.319744893015013e-10 3.770423973037396e-09 2.100080109812552e-09 -10.27859978377819 0.7318009994924068 -0.025912300043273717 8.319744893015013e-10 3.770423973037396e-09 2.100080109812552e-09 -2.221670038998127 -0.733487019315362 0.2089200052432716 0.0 0.0 0.0 -14.656799733638763 12.231799811124802 -3.5025301203131676 0.11381000513210893 28.819799423217773 2.4914999306201935 -6.200559809803963 -17.165999561548233 -27.55620002746582 0.0 0.0 0.0 95.44209480285645 -48.44070017337799 81.52679979801178 12.971499413251877 85.07830202579498 -12.29150041937828 -3.498450145125389 -4.030190035700798 -16.9991996884346
